<svg xmlns="http://www.w3.org/2000/svg" xmlns:xlink="http://www.w3.org/1999/xlink" width="529" zoomAndPan="magnify" viewBox="0 0 396.75 396.749984" height="529" preserveAspectRatio="xMidYMid meet" version="1.0"><defs><g/></defs><g fill="#145da0" fill-opacity="1"><g transform="translate(0.000008, 297.985313)"><g><path d="M 114.851562 3.542969 C 129.03125 3.542969 142.5 0.707031 155.261719 -3.898438 L 184.328125 -3.898438 L 184.328125 -86.136719 L 119.8125 -86.136719 L 119.8125 -82.238281 L 143.210938 -82.238281 L 143.210938 -6.027344 C 132.21875 -1.417969 121.941406 0 114.851562 -1.0625 C 78.695312 -4.253906 66.289062 -43.957031 66.289062 -98.898438 C 66.289062 -156.324219 78.695312 -193.191406 118.394531 -196.027344 C 129.738281 -196.734375 140.375 -193.898438 148.527344 -187.875 C 162.351562 -176.53125 157.035156 -160.578125 152.78125 -152.070312 C 146.046875 -139.308594 139.308594 -136.472656 139.308594 -136.472656 C 139.308594 -123.359375 151.007812 -113.078125 161.289062 -113.078125 C 177.59375 -113.078125 185.746094 -129.738281 185.746094 -144.980469 C 185.746094 -172.632812 160.222656 -200.988281 114.851562 -200.988281 C 56.363281 -200.632812 8.863281 -154.90625 8.863281 -98.546875 C 8.863281 -42.183594 56.363281 3.542969 114.851562 3.542969 Z M 114.851562 3.542969 "/></g></g></g><g fill="#145da0" fill-opacity="1"><g transform="translate(203.470136, 297.985313)"><g><path d="M 114.851562 3.542969 C 129.03125 3.542969 142.5 0.707031 155.261719 -3.898438 L 184.328125 -3.898438 L 184.328125 -86.136719 L 119.8125 -86.136719 L 119.8125 -82.238281 L 143.210938 -82.238281 L 143.210938 -6.027344 C 132.21875 -1.417969 121.941406 0 114.851562 -1.0625 C 78.695312 -4.253906 66.289062 -43.957031 66.289062 -98.898438 C 66.289062 -156.324219 78.695312 -193.191406 118.394531 -196.027344 C 129.738281 -196.734375 140.375 -193.898438 148.527344 -187.875 C 162.351562 -176.53125 157.035156 -160.578125 152.78125 -152.070312 C 146.046875 -139.308594 139.308594 -136.472656 139.308594 -136.472656 C 139.308594 -123.359375 151.007812 -113.078125 161.289062 -113.078125 C 177.59375 -113.078125 185.746094 -129.738281 185.746094 -144.980469 C 185.746094 -172.632812 160.222656 -200.988281 114.851562 -200.988281 C 56.363281 -200.632812 8.863281 -154.90625 8.863281 -98.546875 C 8.863281 -42.183594 56.363281 3.542969 114.851562 3.542969 Z M 114.851562 3.542969 "/></g></g></g></svg>